# AST/ASF file generated using VICON BodyLanguage
# -----------------------------------------------
:version 1.10
:name VICON
:units
  mass 1.0
  length 0.45
  angle deg
:documentation
   .ast/.asf automatically generated from VICON data using
   VICON BodyBuilder and BodyLanguage model FoxedUp or BRILLIANT.MOD
:root
   order TX TY TZ RX RY RZ
   axis XYZ
   position 0 0 0  
   orientation 0 0 0 
:bonedata
  begin
     id 1 
     name lhipjoint
     direction 0.623529 -0.717805 0.309788 
     length 2.23224 
     axis 0 0 0  XYZ
  end
  begin
     id 2 
     name lfemur
     direction 0.34202 -0.939693 0  
     length 7.11402  
     axis 0 0 20  XYZ
    dof rx ry rz
    limits (-160.0 20.0)
           (-70.0 70.0)
           (-60.0 70.0)
  end
  begin
     id 3 
     name ltibia
     direction 0.34202 -0.939693 0   
     length 6.78496   
     axis 0 0 20   XYZ
    dof rx
    limits (-10.0 170.0)
  end
  begin
     id 4 
     name lfoot
     direction 0.125078 -0.343648 0.930732   
     length 1.84054   
     axis -90 7.62852e-016 20   XYZ
    dof rx rz
    limits (-45.0 90.0)
           (-70.0 20.0)
  end
  begin
     id 5 
     name ltoes
     direction 1.53565e-011 -4.21893e-011 1   
     length 0.916474   
     axis -90 7.62852e-016 20   XYZ
    dof rx
    limits (-90.0 20.0)
  end
  begin
     id 6 
     name rhipjoint
     direction -0.564688 -0.757748 0.327026   
     length 2.11457  
     axis 0 0 0  XYZ 
  end
  begin
     id 7 
     name rfemur
     direction -0.34202 -0.939693 0   
     length 7.14609   
     axis 0 0 -20   XYZ
    dof rx ry rz
    limits (-160.0 20.0)
           (-70.0 70.0)
           (-70.0 60.0)
  end
  begin
     id 8 
     name rtibia
     direction -0.34202 -0.939693 0   
     length 6.78101   
     axis 0 0 -20   XYZ
    dof rx
    limits (-10.0 170.0)
 end
 begin
     id 9 
     name rfoot
     direction -0.0992671 -0.272734 0.956955   
     length 1.96168  
     axis -90 -7.62852e-016 -20   XYZ
    dof rx rz
    limits (-45.0 90.0)
           (-20.0 70.0)
  end
  begin
     id 10 
     name rtoes
     direction -1.5356e-011 -4.21891e-011 1   
     length 0.982933   
     axis -90 -7.62852e-016 -20   XYZ
    dof rx
    limits (-90.0 20.0)
  end
  begin
     id 11 
     name lowerback
     direction -0.00596953 0.998668 0.0512524   
     length 1.87557   
     axis 0 0 0   XYZ
    dof rx ry rz
    limits (-20.0 45.0)
           (-30.0 30.0)
           (-30.0 30.0)
  end
  begin
     id 12 
     name upperback
     direction 0.00584879 0.999652 0.0257308   
     length 1.87883   
     axis 0 0 0   XYZ
    dof rx ry rz
    limits (-20.0 45.0)
           (-30.0 30.0)
           (-30.0 30.0)
  end
  begin
     id 13 
     name thorax
     direction 0.010104 0.999947 0.00178881   
     length 1.87779   
     axis 0 0 0   XYZ
    dof rx ry rz
    limits (-20.0 45.0)
           (-30.0 30.0)
           (-30.0 30.0)
  end
  begin
     id 14 
     name lowerneck
     direction 0.0120771 0.995934 -0.0892773   
     length 1.40897   
     axis 0 0 0   XYZ
    dof rx ry rz
    limits (-20.0 45.0)
           (-30.0 30.0)
           (-30.0 30.0)
  end
  begin
     id 15 
     name upperneck
     direction -0.030568 0.999465 -0.0116366   
     length 1.38661   
     axis 0 0 0   XYZ
    dof rx ry rz
    limits (-20.0 45.0)
           (-30.0 30.0)
           (-30.0 30.0)
  end
  begin
     id 16
     name head
     direction -0.0170715 0.999854 -0.00104426  
     length 1.47052  
     axis 0 0 0   XYZ
    dof rx ry rz
    limits (-20.0 45.0)
           (-30.0 30.0)
           (-30.0 30.0)
  end
  begin
     id 17 
     name lclavicle
     direction 0.977763 0.206143 0.038532  
     length 3.02424  
     axis 0 0 0   XYZ
    dof ry rz
    limits (-20.0 10.0)
           (0.0 20.0)
  end
  begin
     id 18 
     name lhumerus
     direction 1 -4.48965e-011 -2.62654e-027   
     length 4.68382   
     axis 180 -30 -90   XYZ
    dof rx ry rz
    limits (-60.0 90.0)
           (-90.0 90.0)
           (-90.0 90.0)
  end
  begin
     id 19
     name lradius
     direction 1 -4.48973e-011 -1.54954e-027   
     length 2.98124   
     axis 180 -30 -90   XYZ
    dof rx
    limits (-10.0 170.0)
  end
  begin
     id 20
     name lwrist
     direction 1 -4.48959e-011 7.20928e-028   
     length 1.49062   
     axis -5.52449e-016 90 90   XYZ
    dof ry
    limits (-180.0 0.0)
 end
  begin
     id 21 
     name lhand
     direction 1 -4.48971e-011 1.44186e-027   
     length 0.707595   
     axis -9.20027e-016 90 90   XYZ
    dof rx rz
    limits (-90.0 90.0)
           (-45.0 45.0)
  end
  begin
     id 22 
     name lfingers
     direction 1 -4.48985e-011 2.88371e-027   
     length 0.570481   
     axis -1.84005e-015 90 90   XYZ
    dof rx
    limits (0.0 90.0)
  end
  begin
     id 23
     name lthumb
     direction 0.707107 -6.34929e-011 0.707107   
     length 0.819101   
     axis -90 45 2.85299e-015   XYZ
    dof rx rz
    limits (-45.0 45.0)
           (-45.0 45.0)
  end
  begin
     id 24 
     name rclavicle
     direction -0.958661 0.284411 -0.00895327   
     length 3.11921  
     axis 0 0 0   XYZ 
    dof ry rz
    limits (-10.0 20.0)
           (-20.0 0.0)
  end
  begin
     id 25 
     name rhumerus
     direction -1 -4.48963e-011 -4.22193e-027  
     length 4.75876   
     axis 180 30 90   XYZ
    dof rx ry rz
    limits (-90.0 60.0)
           (-90.0 90.0)
           (-90.0 90.0)
  end
  begin
     id 26 
     name rradius
     direction -1 -4.48968e-011 -1.07616e-027   
     length 2.93293   
     axis 180 30 90   XYZ
    dof rx
    limits (-10.0 170.0)
  end
  begin
     id 27 
     name rwrist
     direction -1 -4.48965e-011 7.20928e-028   
     length 1.46647   
     axis -5.52449e-016 -90 -90   XYZ
    dof ry
    limits (-180.0 0.0)
  end
  begin
     id 28
     name rhand
     direction -1 -4.48971e-011 1.44186e-027   
     length 0.831748   
     axis -9.20027e-016 -90 -90   XYZ
    dof rx rz
    limits (-90.0 90.0)
           (-45.0 45.0)
  end
  begin
     id 29
     name rfingers
     direction -1 -4.48961e-011 2.88371e-027   
     length 0.670577   
     axis -1.84005e-015 -90 -90   XYZ
    dof rx
    limits (0.0 90.0)
  end
  begin
     id 30
     name rthumb
     direction -0.707107 -6.34929e-011 0.707107   
     length 0.962818   
     axis -90 -45 -2.85299e-015   XYZ
    dof rx rz
    limits (-45.0 45.0)
           (-45.0 45.0)
  end
:hierarchy
  begin
    root lhipjoint rhipjoint lowerback
    lhipjoint lfemur
    lfemur ltibia
    ltibia lfoot
    lfoot ltoes
    rhipjoint rfemur
    rfemur rtibia
    rtibia rfoot
    rfoot rtoes
    lowerback upperback
    upperback thorax
    thorax lowerneck lclavicle rclavicle
    lowerneck upperneck
    upperneck head
    lclavicle lhumerus
    lhumerus lradius
    lradius lwrist
    lwrist lhand lthumb
    lhand lfingers
    rclavicle rhumerus
    rhumerus rradius
    rradius rwrist
    rwrist rhand rthumb
    rhand rfingers
  end

#!OML:ASF E:\id_vita\Project 1\Capture day 1\Session 1\Female.ASF
:FULLY-SPECIFIED
:DEGREES
72
root -20.9554 16.4376 2.78457 -166.863 8.15146 -179.08
lowerback -13.8969 -0.399535 -4.5044
upperback -4.15356 0.503055 1.2979
thorax 3.36329 0.448716 4.0071
lowerneck 11.3702 1.44999 -3.70695
upperneck -18.6236 2.97162 5.51515
head -7.74324 1.39346 2.10574
rclavicle -8.93599e-015 8.19987e-016
rhumerus -37.0939 8.139 -98.9766
rradius 63.9785
rwrist -3.64879
rhand -9.45062 4.60444
rfingers 7.12502
rthumb 16.5126 -24.7129
lclavicle -8.93599e-015 8.19987e-016
lhumerus -31.0263 -12.4588 100.084
lradius 22.6588
lwrist -30.4983
lhand 29.6444 31.4994
lfingers 7.12502
lthumb 53.387 50.7436
rfemur -15.8418 11.2729 17.1186
rtibia 21.5409
rfoot -7.03034 -24.3696
rtoes -10.5427
lfemur -22.128 -13.7572 -14.4848
ltibia 27.0603
lfoot -22.5881 9.54277
ltoes -7.24272
73
root -20.9567 16.4383 2.78459 -166.864 8.15814 -179.088
lowerback -13.8829 -0.41263 -4.511
upperback -4.14574 0.484156 1.30864
thorax 3.36565 0.438526 4.01895
lowerneck 11.3346 1.46816 -3.64949
upperneck -18.6174 2.99395 5.44004
head -7.73409 1.40778 2.06907
rclavicle 3.39565e-015 1.02126e-014
rhumerus -37.4028 8.16015 -99.0388
rradius 65.3641
rwrist -4.09747
rhand -10.3248 4.37402
rfingers 7.12502
rthumb 15.6709 -25.0114
lclavicle 3.39565e-015 1.02126e-014
lhumerus -31.0527 -12.4091 100.075
lradius 22.6472
lwrist -30.763
lhand 29.3911 31.3354
lfingers 7.12502
lthumb 53.1587 50.7268
rfemur -15.7964 11.5775 17.0708
rtibia 21.4798
rfoot -7.05521 -24.6196
rtoes -9.98212
lfemur -22.1512 -13.7245 -14.51
ltibia 27.1044
lfoot -22.4441 8.89353
ltoes -4.74855
74
root -20.9579 16.438 2.7858 -166.846 8.16111 -179.116
lowerback -13.8759 -0.430661 -4.53183
upperback -4.15239 0.463377 1.30575
thorax 3.35679 0.428811 4.02416
lowerneck 11.3814 1.49233 -3.56032
upperneck -18.6737 3.0272 5.3384
head -7.76008 1.42619 2.01709
rclavicle 2.13142e-014 -1.68967e-015
rhumerus -37.6112 8.34844 -99.1127
rradius 66.7119
rwrist -4.43541
rhand -11.0726 4.28851
rfingers 7.12502
rthumb 14.9506 -25.1519
lclavicle 2.13142e-014 -1.68967e-015
lhumerus -30.9949 -12.1683 99.984
lradius 22.6286
lwrist -30.8168
lhand 29.5352 31.422
lfingers 7.12502
lthumb 53.2886 50.7299
rfemur -15.8114 11.5427 17.0406
rtibia 21.4402
rfoot -6.88136 -24.6202
rtoes -10.4874
lfemur -22.1927 -13.7137 -14.5421
ltibia 27.1262
lfoot -21.4796 7.32945
ltoes 0.707971
75
root -20.9579 16.4364 2.78728 -166.751 8.21387 -179.075
lowerback -13.957 -0.411763 -4.46771
upperback -4.16412 0.486954 1.30246
thorax 3.38674 0.441595 3.98936
lowerneck 11.4304 1.52153 -3.60985
upperneck -18.7637 3.08606 5.42261
head -7.80349 1.45141 2.04716
rclavicle -1.10873e-014 -7.45443e-016
rhumerus -37.7742 8.51366 -99.1549
rradius 68.0644
rwrist -4.47286
rhand -11.2886 4.79781
rfingers 7.12502
rthumb 14.7425 -24.6579
lclavicle -1.10873e-014 -7.45443e-016
lhumerus -30.979 -12.293 100.011
lradius 22.6137
lwrist -30.8427
lhand 29.3764 31.3168
lfingers 7.12502
lthumb 53.1454 50.7166
rfemur -15.9379 11.283 17.0791
rtibia 21.4405
rfoot -6.88244 -24.3388
rtoes -10.5552
lfemur -22.2751 -13.8572 -14.4542
ltibia 27.1173
lfoot -22.0673 8.92432
ltoes -4.18508
76
root -20.9603 16.436 2.78775 -166.709 8.15821 -179.089
lowerback -13.9962 -0.401868 -4.43083
upperback -4.15283 0.497789 1.27776
thorax 3.41945 0.445787 3.94486
lowerneck 11.4675 1.5227 -3.66833
upperneck -18.8711 3.11992 5.55748
head -7.85017 1.46224 2.09815
rclavicle 1.56232e-014 -1.54058e-015
rhumerus -37.8625 8.72887 -99.1907
rradius 69.3376
rwrist -4.56794
rhand -11.7077 5.33103
rfingers 7.12502
rthumb 14.3386 -24.1538
lclavicle 1.56232e-014 -1.54058e-015
lhumerus -30.9524 -12.4794 100.055
lradius 22.7442
lwrist -30.4472
lhand 29.5465 31.5207
lfingers 7.12502
lthumb 53.2988 50.822
rfemur -15.994 11.2953 17.0398
rtibia 21.4663
rfoot -7.00608 -24.3668
rtoes -10.0608
lfemur -22.3253 -14.1202 -14.4207
ltibia 27.0894
lfoot -22.1002 9.66342
ltoes -4.80481
77
root -20.9584 16.4342 2.78825 -166.762 8.24449 -179.114
lowerback -13.951 -0.380047 -4.52461
upperback -4.11906 0.530994 1.30788
thorax 3.42563 0.458817 4.03508
lowerneck 11.4485 1.54112 -3.73303
upperneck -18.9062 3.14355 5.57841
head -7.86074 1.47779 2.11366
rclavicle -3.04952e-014 -9.36773e-015
rhumerus -37.9618 9.05686 -99.248
rradius 70.6461
rwrist -4.8603
rhand -13.2529 4.79843
rfingers 7.12502
rthumb 12.8494 -24.7861
lclavicle -3.04952e-014 -9.36773e-015
lhumerus -30.9772 -12.5577 100.122
lradius 22.7557
lwrist -30.5991
lhand 29.4695 31.2843
lfingers 7.12502
lthumb 53.2294 50.6303
rfemur -15.9583 11.715 16.972
rtibia 21.5081
rfoot -6.98571 -24.6722
rtoes -9.88504
lfemur -22.2327 -13.9358 -14.5019
ltibia 27.0485
lfoot -22.2144 9.86357
ltoes -7.37153
78
root -20.9589 16.4324 2.79011 -166.71 8.25166 -179.157
lowerback -13.9725 -0.39888 -4.56826
upperback -4.13249 0.514515 1.32585
thorax 3.42421 0.451989 4.07649
lowerneck 11.3267 1.55792 -3.79425
upperneck -18.803 3.15549 5.60472
head -7.80651 1.48692 2.1316
rclavicle -2.20968e-014 -8.79622e-015
rhumerus -38.3607 9.4286 -99.5509
rradius 72.2415
rwrist -3.94446
rhand -16.2963 3.21872
rfingers 7.12502
rthumb 9.91427 -26.5278
lclavicle -2.20968e-014 -8.79622e-015
lhumerus -30.9391 -12.5348 100.158
lradius 22.8015
lwrist -30.5556
lhand 29.8723 31.6814
lfingers 7.12502
lthumb 53.5921 50.7915
rfemur -16.0503 11.9538 16.8783
rtibia 21.5547
rfoot -6.92429 -24.8887
rtoes -9.45197
lfemur -22.2865 -13.9112 -14.5404
ltibia 26.9963
lfoot -22.3205 9.92596
ltoes -9.1785
79
root -20.958 16.4344 2.79149 -166.593 8.27515 -179.192
lowerback -14.0845 -0.402868 -4.59514
upperback -4.15746 0.525331 1.29635
thorax 3.45764 0.459525 4.06417
lowerneck 11.179 1.55124 -3.7445
upperneck -18.6624 3.15879 5.64438
head -7.73358 1.48395 2.13609
rclavicle -1.3826e-014 -7.52897e-015
rhumerus -38.5266 9.23329 -99.5261
rradius 74.0323
rwrist -4.65789
rhand -15.9732 4.02274
rfingers 7.12502
rthumb 10.226 -25.7087
lclavicle -1.3826e-014 -7.52897e-015
lhumerus -30.8784 -12.3629 100.005
lradius 22.8347
lwrist -31.3378
lhand 31.0054 31.8504
lfingers 7.12502
lthumb 54.6085 50.2685
rfemur -16.2164 12.0241 16.8127
rtibia 21.6052
rfoot -6.81203 -24.9461
rtoes -9.43196
lfemur -22.398 -13.9352 -14.5348
ltibia 26.9331
lfoot -22.2216 9.75618
ltoes -8.18354
80
root -20.9577 16.4367 2.79198 -166.531 8.29402 -179.176
lowerback -14.1622 -0.396665 -4.58912
upperback -4.14787 0.537403 1.29644
thorax 3.50862 0.464333 4.06441
lowerneck 11.1009 1.5492 -3.68489
upperneck -18.5994 3.16613 5.64298
head -7.69829 1.48522 2.12492
rclavicle -3.10019e-015 -4.65902e-015
rhumerus -38.1098 9.03756 -99.1258
rradius 75.4419
rwrist -7.07042
rhand -13.1452 6.16734
rfingers 7.12502
rthumb 12.9533 -23.4106
lclavicle -3.10019e-015 -4.65902e-015
lhumerus -30.7624 -11.9872 99.7789
lradius 22.7911
lwrist -31.8972
lhand 31.5446 31.6117
lfingers 7.12502
lthumb 55.09 49.6851
rfemur -16.3206 12.0847 16.8182
rtibia 21.6579
rfoot -6.74367 -25.0096
rtoes -10.1234
lfemur -22.4322 -14.0155 -14.4875
ltibia 26.8658
lfoot -21.8776 9.22877
ltoes -6.21081
81
root -20.9675 16.4378 2.79131 -166.504 7.90177 -179.259
lowerback -14.1678 -0.521654 -4.48949
upperback -4.13815 0.35926 1.2735
thorax 3.54126 0.375248 3.95377
lowerneck 11.0578 1.56396 -3.67896
upperneck -18.599 3.19766 5.66778
head -7.69231 1.49972 2.12901
rclavicle -1.58905e-014 5.5287e-015
rhumerus -38.7247 9.9386 -99.8002
rradius 77.3416
rwrist -4.00214
rhand -17.7496 4.30197
rfingers 7.12502
rthumb 8.51199 -25.5065
lclavicle -1.58905e-014 5.5287e-015
lhumerus -30.8502 -12.4627 100.059
lradius 22.7638
lwrist -30.4743
lhand 29.843 31.8866
lfingers 7.12502
lthumb 53.5657 51.0141
rfemur -16.33 11.8586 16.7722
rtibia 21.6782
rfoot -6.92184 -25.1762
rtoes -9.53928
lfemur -22.5537 -14.2815 -14.5042
ltibia 26.8205
lfoot -21.1066 7.4743
ltoes -1.31938
